<svg xmlns="http://www.w3.org/2000/svg" width="19.28" height="20.566" viewBox="0 0 19.28 20.566">
  <path id="Icon_metro-calendar" data-name="Icon metro-calendar" d="M8.141,9h2.571v2.571H8.141ZM12,9h2.571v2.571H12Zm3.856,0h2.571v2.571H15.853ZM4.285,16.71H6.855V19.28H4.285Zm3.856,0h2.571V19.28H8.141Zm3.856,0h2.571V19.28H12ZM8.141,12.854h2.571v2.571H8.141Zm3.856,0h2.571v2.571H12Zm3.856,0h2.571v2.571H15.853Zm-11.568,0H6.855v2.571H4.285ZM18.423,1.285V2.571H15.853V1.285h-9V2.571H4.285V1.285H1.714V21.851h19.28V1.285H18.423Zm1.285,19.28H3V6.427h16.71V20.566Z" transform="translate(-1.714 -1.285)" fill="#222"/>
</svg>
