<svg xmlns="http://www.w3.org/2000/svg" width="100" height="100" viewBox="0 0 100 100">
  <path id="Icon_awesome-user-circle" data-name="Icon awesome-user-circle" d="M50,.375a50,50,0,1,0,50,50A49.991,49.991,0,0,0,50,.375ZM50,19.73A17.742,17.742,0,1,1,32.258,37.472,17.742,17.742,0,0,1,50,19.73Zm0,69.355a38.635,38.635,0,0,1-29.536-13.75A22.479,22.479,0,0,1,40.323,63.278a4.933,4.933,0,0,1,1.431.222A26.694,26.694,0,0,0,50,64.891,26.592,26.592,0,0,0,58.246,63.5a4.933,4.933,0,0,1,1.431-.222A22.479,22.479,0,0,1,79.536,75.335,38.634,38.634,0,0,1,50,89.085Z" transform="translate(0 -0.375)" fill="#294366"/>
</svg>
