<svg xmlns="http://www.w3.org/2000/svg" width="17" height="17" viewBox="0 0 17 17">
  <path id="Icon_ionic-ios-checkbox" data-name="Icon ionic-ios-checkbox" d="M20.083,4.5H5.917A1.415,1.415,0,0,0,4.5,5.917V20.083A1.415,1.415,0,0,0,5.917,21.5H20.083A1.415,1.415,0,0,0,21.5,20.083V5.917A1.415,1.415,0,0,0,20.083,4.5Zm-2.324,5.954L11.84,16.4h0a.8.8,0,0,1-.514.243.775.775,0,0,1-.518-.252L8.325,13.912a.176.176,0,0,1,0-.252l.788-.788a.171.171,0,0,1,.248,0l1.966,1.966,5.4-5.441a.175.175,0,0,1,.124-.053h0a.161.161,0,0,1,.124.053l.775.8A.175.175,0,0,1,17.759,10.454Z" transform="translate(-4.5 -4.5)" fill="#dfa312"/>
</svg>
