<svg xmlns="http://www.w3.org/2000/svg" width="17" height="17" viewBox="0 0 17 17">
  <g id="Group_9649" data-name="Group 9649" transform="translate(120 3898)">
    <g id="Icon_ionic-ios-checkbox-outline" data-name="Icon ionic-ios-checkbox-outline" transform="translate(-120 -3898)">
      <path id="Path_3263" data-name="Path 3263" d="M20.083,4.5H5.917A1.415,1.415,0,0,0,4.5,5.917V20.083A1.415,1.415,0,0,0,5.917,21.5H20.083A1.415,1.415,0,0,0,21.5,20.083V5.917A1.415,1.415,0,0,0,20.083,4.5Zm.177,15.406a.355.355,0,0,1-.354.354H6.094a.355.355,0,0,1-.354-.354V6.094a.355.355,0,0,1,.354-.354H19.906a.355.355,0,0,1,.354.354Z" transform="translate(-4.5 -4.5)" fill="#ddd"/>
    </g>
  </g>
</svg>
