<svg xmlns="http://www.w3.org/2000/svg" width="16" height="16" viewBox="0 0 16 16">
  <path id="Icon_ionic-logo-whatsapp" data-name="Icon ionic-logo-whatsapp" d="M10.4,2.25a7.824,7.824,0,0,0-7.855,7.794,7.713,7.713,0,0,0,1.127,4.025L2.25,18.25,6.6,16.869A7.868,7.868,0,0,0,18.25,10.044,7.824,7.824,0,0,0,10.4,2.25ZM14.3,13a2.029,2.029,0,0,1-1.389.9c-.368.02-.379.286-2.387-.587a8.2,8.2,0,0,1-3.311-3.131,3.852,3.852,0,0,1-.741-2.088,2.226,2.226,0,0,1,.764-1.633.769.769,0,0,1,.544-.229c.158,0,.261,0,.378,0s.293-.024.445.38.516,1.4.562,1.5a.364.364,0,0,1,0,.349,1.364,1.364,0,0,1-.213.324c-.1.112-.22.252-.314.337s-.213.2-.1.4A6.011,6.011,0,0,0,9.6,10.943a5.48,5.48,0,0,0,1.575,1.047c.2.107.314.1.437-.033s.523-.562.664-.756.274-.156.455-.083,1.148.591,1.345.7.328.162.375.246A1.649,1.649,0,0,1,14.3,13Z" transform="translate(-2.25 -2.25)" fill="#25d366"/>
</svg>
