<svg xmlns="http://www.w3.org/2000/svg" width="163.32" height="179.757" viewBox="0 0 163.32 179.757">
  <g id="Illustration" transform="translate(-1253.1 -3035.999)">
    <path id="Path_3060" data-name="Path 3060" d="M620.213,518.348h-4.4l-2.095-16.981h6.5Z" transform="translate(745.739 2692.394)" fill="#c9979e"/>
    <path id="Path_3061" data-name="Path 3061" d="M840.749,716.8h-14.2v-.18a5.526,5.526,0,0,1,5.525-5.525h8.671Z" transform="translate(526.326 2498.208)" fill="#2f2e41"/>
    <path id="Path_3062" data-name="Path 3062" d="M524.926,516.02l-4.174-1.4,3.412-16.766,6.16,2.065Z" transform="translate(798.118 2694.373)" fill="#c9979e"/>
    <path id="Path_3063" data-name="Path 3063" d="M740.174,712.766l-13.459-4.512.057-.17a5.525,5.525,0,0,1,6.995-3.482h0l8.22,2.756Z" transform="translate(582.577 2502.03)" fill="#2f2e41"/>
    <path id="Path_3064" data-name="Path 3064" d="M758.34,492.052,748.807,572.7l9.35.789s14.708-79.291,19.243-69.9,10.09,68.138,10.09,68.138h9.28s2.38-91.659-7.337-96.193Z" transform="translate(570.13 2630.931)" fill="#2f2e41"/>
    <circle id="Ellipse_89" data-name="Ellipse 89" cx="9.393" cy="9.393" r="9.393" transform="translate(1333.051 3062.533) rotate(-80.009)" fill="#c9979e"/>
    <path id="Path_3065" data-name="Path 3065" d="M777.587,386.879l11.984.972s9.555.162,13.441,2.753-3.725,18.623-3.725,18.623-1.979,6.356-.486,9.231c4.844,9.326,4.126,16.508,4.126,16.508s-9.956,2.277-27.122,6.812c0,0-10.688,4.21-10.364,1.943S769,415.543,769,415.543V388.66Z" transform="translate(560.762 2680.882)" fill="#3f3d56"/>
    <path id="Path_3066" data-name="Path 3066" d="M805.146,332.02a20.6,20.6,0,0,0-3.946-9.346c.075,0,.15,0,.226,0a2.269,2.269,0,0,0,2.1-1.033,1.792,1.792,0,0,0-.328-1.787,5.278,5.278,0,0,0-1.5-1.17c.577.35,1.393.676,1.853.182a1,1,0,0,0,.113-1.067,2.647,2.647,0,0,0-.72-.868,17.7,17.7,0,0,0-3.165-2.233c-.878-.485-2.032-.874-2.82-.254s-.674,1.862-.467,2.863a3.293,3.293,0,0,0-1.474-.445,1.129,1.129,0,0,0-1.131.869,1.16,1.16,0,0,0,.522,1.013c-3.1-.509-7.054.069-12.113,2.409,0,0-4.905,1.635-5.154,8.092a11.458,11.458,0,0,0,.34,3.066c.276,1.171,1.26,6.913.08,9.234l5.907,2.1.068-3.538c-4.591-6.627-2.323-9.059-.535-13.045a.042.042,0,0,1,.075-.006c.33.567,1.6,2.51,5.953,2.51l-1.683-1.683s7.407,3.03,10.1,3.03c0,0,2.02,1.347,0,3.367s-6.441,4.994-4.085,8.7S795.517,348,795.517,348l5.387-3.03s3.29-6.51,3.874-8.427a9.671,9.671,0,0,0,.367-4.522Z" transform="translate(554.167 2721.875)" fill="#2f2e41"/>
    <path id="Path_3067" data-name="Path 3067" d="M465.118,348.182H572.286v59.4H558.674v16.335l-14.665-16.335H465.118Z" transform="translate(829.464 2778.703)" fill="#00b894"/>
    <rect id="Rectangle_1567" data-name="Rectangle 1567" width="72.023" height="3.218" transform="translate(1312.154 3144.334)" fill="#fff"/>
    <rect id="Rectangle_1568" data-name="Rectangle 1568" width="72.023" height="3.218" transform="translate(1312.154 3154.977)" fill="#fff"/>
    <rect id="Rectangle_1569" data-name="Rectangle 1569" width="72.023" height="3.218" transform="translate(1312.154 3165.619)" fill="#fff"/>
    <path id="Path_3068" data-name="Path 3068" d="M834.964,435.125l-6.286,1.528-.048,12.722-7.07,24.4a3.95,3.95,0,1,0,6.207,1.88l8.452-25.261Z" transform="translate(529.984 2653.699)" fill="#c9979e"/>
    <path id="Path_3069" data-name="Path 3069" d="M758.369,434.513l7.541,2.155.048,12.722,7.07,24.4a3.95,3.95,0,1,1-6.207,1.88l-8.452-25.261Z" transform="translate(564.743 2654.044)" fill="#c9979e"/>
    <path id="Path_3070" data-name="Path 3070" d="M832.591,391.562l1.558-.508a3.545,3.545,0,0,1,2.653.184h0s4.534.324,5.182,3.563,2.223,31.548,2.223,31.548l-9.6-3.056Z" transform="translate(522.924 2678.628)" fill="#3f3d56"/>
    <path id="Path_3071" data-name="Path 3071" d="M767.123,391.7l-2.757-.139-.873-.437s-5.114.575-5.762,3.814S755.2,427.36,755.2,427.36l9.6-2.619Z" transform="translate(566.529 2678.49)" fill="#3f3d56"/>
    <path id="Path_3072" data-name="Path 3072" d="M397.832,630.531l4.553-3.971a76.05,76.05,0,0,0-1.065-8.5l-2.512,1.063,2.331-2.033c-.671-3.472-1.335-5.728-1.335-5.728s-9.185,8.157-14.325,18.107l2.255,7.417-3.444-4.9a30.786,30.786,0,0,0-1.309,3.638c-3.584,12.5-2.406,23.808,2.631,25.252s12.026-7.521,15.61-20.023a40.5,40.5,0,0,0,1.262-12.28Z" transform="translate(873.096 2554.405)" fill="#f1f1f1"/>
    <path id="Path_3073" data-name="Path 3073" d="M412.037,657.677l5.95-1.046a76.062,76.062,0,0,0,3.485-7.831l-2.7-.389,3.046-.536c1.22-3.318,1.818-5.593,1.818-5.593s-12.079,2.235-21.623,8.1l-1.9,7.515-.413-5.979a30.771,30.771,0,0,0-3,2.438c-9.531,8.85-14.367,19.137-10.8,22.977s14.182-.222,23.713-9.072a40.5,40.5,0,0,0,7.428-9.86Z" transform="translate(870.946 2536.98)" fill="#f1f1f1"/>
    <path id="Path_3074" data-name="Path 3074" d="M515.157,723.988H352.363c-.145,0-.263-.193-.263-.431s.118-.431.263-.431H515.157c.146,0,.263.193.263.431S515.3,723.988,515.157,723.988Z" transform="translate(901 2491.436)" fill="#cbcbcb"/>
  </g>
</svg>
